<svg id="Camada_1" data-name="Camada 1" xmlns="http://www.w3.org/2000/svg" viewBox="0 0 1014.12 1434.33">
    <defs>
        <style>.cls-1,.cls-10,.cls-11,.cls-12,.cls-2,.cls-3,.cls-4,.cls-5,.cls-6,.cls-7,.cls-8,.cls-9{fill:none;stroke-miterlimit:10;}.cls-1{stroke:#7ea6e1;}.cls-2{stroke:#994b00;}.cls-3{stroke:#000;}.cls-4{stroke:#00a3e8;}.cls-5{stroke:#999;}.cls-6{stroke:#22b14c;}.cls-7{stroke:#ea6a65;}.cls-8{stroke:#ed1c24;}.cls-9{stroke:#a046a6;}.cls-10{stroke:#ff7f27;}.cls-11{stroke:#99ff32;}.cls-12{stroke:#fc7f03;}.cls-13,.cls-30,.cls-31{font-size:13.63px;}.cls-13,.cls-21,.cls-25,.cls-30,.cls-31{font-family:Arial-BoldMT;font-weight:700;}.cls-14{letter-spacing:-0.04em;}.cls-15{letter-spacing:-0.06em;}.cls-16{letter-spacing:-0.02em;}.cls-17{letter-spacing:0em;}.cls-18{letter-spacing:-0.03em;}.cls-19{letter-spacing:-0.05em;}.cls-20{letter-spacing:0em;}.cls-21{font-size:23.53px;}.cls-22{letter-spacing:-0.07em;}.cls-23{letter-spacing:-0.03em;}.cls-24{letter-spacing:-0.08em;}.cls-25{font-size:7.86px;}.cls-26{letter-spacing:-0.02em;}.cls-27{letter-spacing:-0.07em;}.cls-28{letter-spacing:-0.03em;}.cls-29{letter-spacing:-0.04em;}.cls-30{fill:#ed1c24;}.cls-31{fill:#22b14c;}.cls-32{letter-spacing:-0.1em;}.cls-33{letter-spacing:-0.09em;}</style>
    </defs>
    <title>BAR2</title>
    <rect id="1"  class="cls-1" x="171.79" y="4.83" width="17.78" height="12.43" />
    <polygon id="2"  class="cls-2" points="67.5 146.83 67.5 144.33 63.87 144.33 63.87 146.83 52.12 146.83 52.12 144.33 48.5 144.33 48.5 146.83 43.45 146.83 43.45 166.93 72.62 166.93 72.62 146.83 67.5 146.83" />
    <polygon id="3"  class="cls-2" points="31 146.83 31 144.33 27.37 144.33 27.37 146.83 15.62 146.83 15.62 144.33 12 144.33 12 146.83 6.96 146.83 6.96 166.93 36.12 166.93 36.12 146.83 31 146.83" />
    <polygon id="4"  class="cls-2" points="51.02 56.26 48.52 56.26 48.52 59.88 51.02 59.88 51.02 71.63 48.52 71.63 48.52 75.26 51.02 75.26 51.02 80.3 71.12 80.3 71.12 51.13 51.02 51.13 51.02 56.26" />
    <polygon id="5"  class="cls-2" points="51.02 17.09 48.52 17.09 48.52 20.72 51.02 20.72 51.02 32.47 48.52 32.47 48.52 36.09 51.02 36.09 51.02 41.13 71.12 41.13 71.12 11.97 51.02 11.97 51.02 17.09" />
    <polygon id="6"  class="cls-2" points="51.02 96.92 48.52 96.92 48.52 100.55 51.02 100.55 51.02 112.3 48.52 112.3 48.52 115.92 51.02 115.92 51.02 120.97 71.12 120.97 71.12 91.8 51.02 91.8 51.02 96.92" />
    <polygon id="7"  class="cls-2" points="16.19 57.01 13.69 57.01 13.69 60.63 16.19 60.63 16.19 72.38 13.69 72.38 13.69 76.01 16.19 76.01 16.19 81.05 36.29 81.05 36.29 51.88 16.19 51.88 16.19 57.01" />
    <polygon id="8"  class="cls-2" points="16.19 18.22 13.69 18.22 13.69 21.85 16.19 21.85 16.19 33.6 13.69 33.6 13.69 37.22 16.19 37.22 16.19 42.27 36.29 42.27 36.29 13.1 16.19 13.1 16.19 18.22" />
    <polygon id="9"  class="cls-2" points="16.19 96.92 13.69 96.92 13.69 100.55 16.19 100.55 16.19 112.3 13.69 112.3 13.69 115.92 16.19 115.92 16.19 120.97 36.29 120.97 36.29 91.8 16.19 91.8 16.19 96.92" />
    <rect id="10"  class="cls-1" x="189.57" y="4.83" width="17.78" height="12.43" />
    <rect id="11"  class="cls-3" x="223.9" y="4.83" width="17.78" height="66.1" />
    <rect id="12"  class="cls-3" x="241.69" y="53.26" width="108.6" height="17.67" />
    <rect id="13"  class="cls-4" x="266.12" y="100.18" width="44.83" height="20.75" />
    <rect id="14"  class="cls-4" x="272.62" y="120.93" width="31.83" height="35.08" />
    <rect id="15"  class="cls-5" x="240.79" y="198.43" width="19.14" height="97.83" />
    <rect id="16"  class="cls-5" x="407.98" y="198.43" width="19.14" height="97.83" />
    <rect id="17"  class="cls-6" x="407.98" y="296.26" width="19.14" height="10.67" />
    <rect id="18"  class="cls-6" x="240.79" y="317.26" width="19.14" height="10.67" />
    <rect id="19"  class="cls-6" x="458.26" y="317.26" width="19.14" height="10.67" />
    <rect id="20"  class="cls-6" x="625.45" y="296.26" width="19.14" height="10.67" />
    <rect id="21"  class="cls-6" x="405.47" y="555.26" width="19.14" height="10.67" />
    <rect id="22"  class="cls-6" x="240.79" y="574.43" width="19.14" height="10.67" />
    <rect id="23"  class="cls-6" x="458.26" y="574.43" width="19.14" height="10.67" />
    <rect id="24"  class="cls-6" x="622.94" y="555.26" width="19.14" height="10.67" />
    <rect id="25"  class="cls-6" x="407.73" y="682.93" width="19.14" height="10.67" />
    <rect id="26"  class="cls-6" x="240.79" y="702.1" width="19.14" height="10.67" />
    <rect id="27"  class="cls-6" x="458.26" y="702.1" width="19.14" height="10.67" />
    <rect id="28"  class="cls-6" x="625.2" y="682.93" width="19.14" height="10.67" />
    <rect id="29"  class="cls-6" x="407.73" y="810.6" width="19.14" height="10.67" />
    <rect id="30"  class="cls-6" x="240.79" y="829.76" width="19.14" height="10.67" />
    <rect id="31"  class="cls-6" x="458.26" y="829.76" width="19.14" height="10.67" />
    <rect id="32"  class="cls-6" x="625.2" y="810.6" width="19.14" height="10.67" />
    <rect id="33"  class="cls-6" x="407.73" y="938.26" width="19.14" height="10.67" />
    <rect id="34"  class="cls-6" x="240.79" y="957.43" width="19.14" height="10.67" />
    <rect id="35"  class="cls-6" x="458.26" y="957.43" width="19.14" height="10.67" />
    <rect id="36"  class="cls-6" x="625.2" y="938.26" width="19.14" height="10.67" />
    <rect id="37"  class="cls-6" x="675.85" y="958.85" width="19.14" height="10.67" />
    <rect id="38"  class="cls-6" x="675.85" y="831.18" width="19.14" height="10.67" />
    <rect id="39"  class="cls-6" x="842.79" y="939.68" width="19.14" height="10.67" />
    <rect id="40"  class="cls-6" x="675.85" y="1090.43" width="19.14" height="10.67" />
    <rect id="41"  class="cls-6" x="842.79" y="1066.75" width="19.14" height="10.67" />
    <rect id="42"  class="cls-6" x="675.85" y="1213.68" width="19.14" height="10.67" />
    <rect id="43"  class="cls-6" x="842.79" y="1198.18" width="19.14" height="10.67" />
    <rect id="44"  class="cls-6" x="407.73" y="1065.93" width="19.14" height="10.67" />
    <rect id="45"  class="cls-6" x="240.79" y="1089.68" width="19.14" height="10.67" />
    <rect id="46"  class="cls-6" x="625.2" y="1065.93" width="19.14" height="10.67" />
    <rect id="47"  class="cls-6" x="407.98" y="425.76" width="19.14" height="10.67" />
    <rect id="48"  class="cls-6" x="238.29" y="446.76" width="19.14" height="10.67" />
    <rect id="49"  class="cls-5" x="259.93" y="198.43" width="148.04" height="48.92" />
    <rect id="50"  class="cls-5" x="259.93" y="247.35" width="148.04" height="48.92" />
    <rect id="51"  class="cls-5" x="458.26" y="198.43" width="19.14" height="97.83" />
    <rect id="52"  class="cls-5" x="625.45" y="198.43" width="19.14" height="97.83" />
    <rect id="53"  class="cls-5" x="477.4" y="198.43" width="148.04" height="48.92" />
    <rect id="54"  class="cls-5" x="477.4" y="247.35" width="148.04" height="48.92" />
    <rect id="55"  class="cls-5" x="240.79" y="327.93" width="19.14" height="97.83" />
    <rect id="56"  class="cls-5" x="407.98" y="327.93" width="19.14" height="97.83" />
    <rect id="57"  class="cls-5" x="259.93" y="327.93" width="148.04" height="48.92" />
    <rect id="58"  class="cls-5" x="259.93" y="376.85" width="148.04" height="48.92" />
    <rect id="59"  class="cls-5" x="458.26" y="327.93" width="19.14" height="97.83" />
    <rect id="60"  class="cls-5" x="625.45" y="327.93" width="19.14" height="97.83" />
    <rect id="61"  class="cls-5" x="477.4" y="327.93" width="148.04" height="48.92" />
    <rect id="62"  class="cls-5" x="477.4" y="376.85" width="148.04" height="48.92" />
    <rect id="63"  class="cls-5" x="238.29" y="457.43" width="19.14" height="97.83" />
    <rect id="64"  class="cls-5" x="405.48" y="457.43" width="19.14" height="97.83" />
    <rect id="65"  class="cls-5" x="257.43" y="457.43" width="148.04" height="48.92" />
    <rect id="66"  class="cls-5" x="257.43" y="506.35" width="148.04" height="48.92" />
    <rect id="67"  class="cls-5" x="455.76" y="457.43" width="19.14" height="97.83" />
    <rect id="68"  class="cls-5" x="622.95" y="457.43" width="19.14" height="97.83" />
    <rect id="69"  class="cls-5" x="474.9" y="457.43" width="148.04" height="48.92" />
    <rect id="70"  class="cls-5" x="474.9" y="506.35" width="148.04" height="48.92" />
    <rect id="71"  class="cls-5" x="240.54" y="585.1" width="19.14" height="97.83" />
    <rect id="72"  class="cls-5" x="407.73" y="585.1" width="19.14" height="97.83" />
    <rect id="73"  class="cls-5" x="259.68" y="585.1" width="148.04" height="48.92" />
    <rect id="74"  class="cls-5" x="259.68" y="634.01" width="148.04" height="48.92" />
    <rect id="75"  class="cls-5" x="458.01" y="585.1" width="19.14" height="97.83" />
    <rect id="76"  class="cls-5" x="625.2" y="585.1" width="19.14" height="97.83" />
    <rect id="77"  class="cls-5" x="477.15" y="585.1" width="148.04" height="48.92" />
    <rect id="78"  class="cls-5" x="477.15" y="634.01" width="148.04" height="48.92" />
    <rect id="79"  class="cls-5" x="240.54" y="712.76" width="19.14" height="97.83" />
    <rect id="80"  class="cls-5" x="407.73" y="712.76" width="19.14" height="97.83" />
    <rect id="81"  class="cls-5" x="259.68" y="712.76" width="148.04" height="48.92" />
    <rect id="82"  class="cls-5" x="259.68" y="761.68" width="148.04" height="48.92" />
    <rect id="83"  class="cls-5" x="458.01" y="712.76" width="19.14" height="97.83" />
    <rect id="84"  class="cls-5" x="625.2" y="712.76" width="19.14" height="97.83" />
    <rect id="85"  class="cls-5" x="477.15" y="712.76" width="148.04" height="48.92" />
    <rect id="86"  class="cls-5" x="477.15" y="761.68" width="148.04" height="48.92" />
    <rect id="87"  class="cls-5" x="240.54" y="840.43" width="19.14" height="97.83" />
    <rect id="88"  class="cls-5" x="407.73" y="840.43" width="19.14" height="97.83" />
    <rect id="89"  class="cls-5" x="259.68" y="840.43" width="148.04" height="48.92" />
    <rect id="90"  class="cls-5" x="259.68" y="889.35" width="148.04" height="48.92" />
    <rect id="91"  class="cls-5" x="458.01" y="840.43" width="19.14" height="97.83" />
    <rect id="92"  class="cls-5" x="625.2" y="840.43" width="19.14" height="97.83" />
    <rect id="93"  class="cls-5" x="477.15" y="840.43" width="148.04" height="48.92" />
    <rect id="94"  class="cls-5" x="477.15" y="889.35" width="148.04" height="48.92" />
    <rect id="95"  class="cls-5" x="240.54" y="968.1" width="19.14" height="97.83" />
    <rect id="96"  class="cls-5" x="407.73" y="968.1" width="19.14" height="97.83" />
    <rect id="97"  class="cls-5" x="259.68" y="968.1" width="148.04" height="48.92" />
    <rect id="98"  class="cls-5" x="259.68" y="1017.01" width="148.04" height="48.92" />
    <rect id="99"  class="cls-5" x="458.01" y="968.1" width="19.14" height="97.83" />
    <rect id="100"  class="cls-5" x="625.2" y="968.1" width="19.14" height="97.83" />
    <rect id="101"  class="cls-5" x="477.15" y="968.1" width="148.04" height="48.92" />
    <rect id="102"  class="cls-5" x="477.15" y="1017.01" width="148.04" height="48.92" />
    <rect id="103"  class="cls-5" x="240.54" y="1100.35" width="19.14" height="97.83" />
    <rect id="104"  class="cls-5" x="407.73" y="1100.35" width="19.14" height="97.83" />
    <rect id="105"  class="cls-5" x="259.68" y="1100.35" width="148.04" height="48.92" />
    <rect id="106"  class="cls-5" x="259.68" y="1149.26" width="148.04" height="48.92" />
    <rect id="107"  class="cls-5" x="458.01" y="1100.35" width="19.14" height="97.83" />
    <rect id="108"  class="cls-5" x="625.2" y="1100.35" width="19.14" height="97.83" />
    <rect id="109"  class="cls-5" x="477.15" y="1100.35" width="148.04" height="48.92" />
    <rect id="110"  class="cls-5" x="477.15" y="1149.26" width="148.04" height="48.92" />
    <rect id="111"  class="cls-5" x="675.73" y="841.85" width="19.14" height="97.83" />
    <rect id="112"  class="cls-5" x="842.92" y="841.85" width="19.14" height="97.83" />
    <rect id="113"  class="cls-5" x="694.87" y="841.85" width="148.04" height="48.92" />
    <rect id="114"  class="cls-5" x="694.87" y="890.76" width="148.04" height="48.92" />
    <rect id="115"  class="cls-5" x="675.73" y="969.51" width="19.14" height="97.23" />
    <rect id="116"  class="cls-5" x="842.92" y="969.51" width="19.14" height="97.23" />
    <rect id="117"  class="cls-5" x="694.87" y="969.51" width="148.04" height="48.62" />
    <rect id="118"  class="cls-5" x="694.87" y="1018.13" width="148.04" height="48.62" />
    <rect id="119"  class="cls-5" x="675.73" y="1100.95" width="19.14" height="97.23" />
    <rect id="120"  class="cls-5" x="842.92" y="1100.95" width="19.14" height="97.23" />
    <rect id="121"  class="cls-5" x="694.87" y="1100.95" width="148.04" height="48.62" />
    <rect id="122"  class="cls-5" x="694.87" y="1149.57" width="148.04" height="48.62" />
    <rect id="123"  class="cls-5" x="675.73" y="1224.35" width="18.98" height="76.92" />
    <rect id="124"  class="cls-5" x="841.51" y="1224.35" width="18.98" height="76.92" />
    <rect id="125"  class="cls-5" x="694.87" y="1224.35" width="146.64" height="38.46" />
    <rect id="126"  class="cls-5" x="694.71" y="1262.81" width="146.8" height="38.46" />
    <rect id="127"  class="cls-4" x="342.79" y="120.93" width="31.83" height="35.08" />
    <rect id="128"  class="cls-7" x="416.54" y="120.93" width="18.33" height="7.83" />
    <rect id="129"  class="cls-7" x="434.87" y="120.93" width="18.33" height="7.83" />
    <rect id="130"  class="cls-7" x="416.54" y="136.43" width="18.33" height="7.83" />
    <rect id="131"  class="cls-7" x="434.87" y="136.43" width="18.33" height="7.83" />
    <rect id="132"  class="cls-7" x="416.54" y="151.1" width="18.33" height="7.83" />
    <rect id="133"  class="cls-7" x="434.87" y="151.1" width="18.33" height="7.83" />
    <rect id="134"  class="cls-7" x="416.54" y="165.76" width="18.33" height="7.83" />
    <rect id="135"  class="cls-7" x="434.87" y="165.76" width="18.33" height="7.83" />
    <rect id="136"  class="cls-7" x="416.54" y="173.6" width="36.67" height="7.83" />
    <rect id="137"  class="cls-4" x="336.29" y="100.18" width="44.83" height="20.75" />
    <rect id="138"  class="cls-4" x="266.12" y="156.01" width="44.83" height="20.75" />
    <rect id="139"  class="cls-4" x="336.29" y="156.01" width="44.83" height="20.75" />
    <rect id="140"  class="cls-4" x="492.62" y="102.06" width="44.83" height="20.75" />
    <rect id="141"  class="cls-4" x="499.12" y="122.81" width="31.83" height="35.08" />
    <rect id="142"  class="cls-4" x="575.62" y="122.81" width="31.83" height="35.08" />
    <rect id="143"  class="cls-4" x="569.12" y="102.06" width="44.83" height="20.75" />
    <rect id="144"  class="cls-4" x="492.62" y="157.89" width="44.83" height="20.75" />
    <rect id="145"  class="cls-4" x="569.12" y="157.89" width="44.83" height="20.75" />
    <polygon id="146"  class="cls-2" points="288.62 73.52 288.62 89.27 294.37 89.27 294.37 91.68 298.79 91.68 298.79 89.27 310.29 89.27 310.29 91.68 314.7 91.68 314.7 89.27 320.29 89.27 320.29 73.52 288.62 73.52" />
    <polygon id="147"  class="cls-2" points="336.29 73.52 336.29 83.6 341.43 83.6 341.43 85.76 345.38 85.76 345.38 83.6 355.67 83.6 355.67 85.76 359.62 85.76 359.62 83.6 364.61 83.6 364.61 73.52 336.29 73.52" />
    <polygon id="148"  class="cls-2" points="764.37 770.51 764.37 751.01 756.12 751.01 756.12 748.64 749.78 748.64 749.78 751.01 733.27 751.01 733.27 748.64 726.93 748.64 726.93 751.01 718.92 751.01 718.92 770.51 764.37 770.51" />
    <polygon id="149"  class="cls-2" points="419.29 102.89 419.29 112.97 425.62 112.97 425.62 115.14 429.57 115.14 429.57 112.97 441.86 112.97 441.86 115.14 445.81 115.14 445.81 112.97 452.45 112.97 452.45 102.89 419.29 102.89" />
    <rect id="150"  class="cls-3" x="350.29" y="53.26" width="125.67" height="17.67" />
    <rect id="151"  class="cls-3" x="475.95" y="53.26" width="186.33" height="17.67" />
    <rect id="152"  class="cls-1" x="675.73" y="53.26" width="17.67" height="647.17" />
    <rect id="153"  class="cls-1" x="693.39" y="681.73" width="226.56" height="18.7" />
    <rect id="154"  class="cls-3" x="919.95" y="681.73" width="11" height="171.2" />
    <rect id="155"  class="cls-1" x="919.95" y="889.73" width="11" height="40.85" />
    <rect id="156"  class="cls-1" x="919.95" y="930.58" width="11" height="40.85" />
    <rect id="157"  class="cls-8" x="880.62" y="939.08" width="24.84" height="24.84" />
    <rect id="158"  class="cls-8" x="878.52" y="1069.13" width="24.84" height="24.84" />
    <rect id="159"  class="cls-8" x="880.03" y="1198.18" width="24.84" height="24.84" />
    <rect id="160"  class="cls-8" x="808.12" y="1329.62" width="32.17" height="27.15" />
    <rect id="161"  class="cls-8" x="678.63" y="1329.62" width="32.17" height="27.15" />
    <rect id="162"  class="cls-9" x="126.12" y="1230" width="29.67" height="25.04" />
    <rect id="163"  class="cls-10" x="65.45" y="1147.26" width="62.17" height="16.33" />
    <rect id="164"  class="cls-10" x="65.45" y="1130.93" width="62.17" height="16.33" />
    <rect id="165"  class="cls-10" x="127.87" y="1130.93" width="17.42" height="32.67" />
    <rect id="166"  class="cls-10" x="65.45" y="1039.93" width="62.17" height="16.33" />
    <rect id="167"  class="cls-10" x="65.45" y="1023.6" width="62.17" height="16.33" />
    <rect id="168"  class="cls-10" x="127.87" y="1023.6" width="17.42" height="32.67" />
    <rect id="169"  class="cls-10" x="65.45" y="927.26" width="62.17" height="16.33" />
    <rect id="170"  class="cls-10" x="65.45" y="910.93" width="62.17" height="16.33" />
    <rect id="171"  class="cls-10" x="127.87" y="910.93" width="17.42" height="32.67" />
    <rect id="172"  class="cls-10" x="65.45" y="802.47" width="62.17" height="16.33" />
    <rect id="173"  class="cls-10" x="65.45" y="786.14" width="62.17" height="16.33" />
    <rect id="174"  class="cls-10" x="127.87" y="786.14" width="17.42" height="32.67" />
    <rect id="175"  class="cls-10" x="65.45" y="671.93" width="62.17" height="16.33" />
    <rect id="176"  class="cls-3" x="34.37" y="337.26" width="27.33" height="832.18" />
    <rect id="177"  class="cls-10" x="65.45" y="655.6" width="62.17" height="16.33" />
    <rect id="178"  class="cls-10" x="127.87" y="655.6" width="17.42" height="32.67" />
    <rect id="179"  class="cls-10" x="65.45" y="530.81" width="62.17" height="16.33" />
    <rect id="180"  class="cls-10" x="65.45" y="514.47" width="62.17" height="16.33" />
    <rect id="181"  class="cls-10" x="127.87" y="514.47" width="17.42" height="32.67" />
    <rect id="182"  class="cls-10" x="65.45" y="395.14" width="62.17" height="16.33" />
    <rect id="183"  class="cls-10" x="65.45" y="378.81" width="62.17" height="16.33" />
    <rect id="184"  class="cls-10" x="127.87" y="378.81" width="17.42" height="32.67" />
    <rect id="185"  class="cls-9" x="158.95" y="1230" width="29.67" height="25.04" />
    <rect id="186"  class="cls-7" x="611.45" y="1277.19" width="32.89" height="83.57" />
    <rect id="187"  class="cls-7" x="553.95" y="1226.19" width="32.89" height="22.41" />
    <rect id="188"  class="cls-11" x="459.37" y="1224.35" width="78.5" height="23.17" />
    <rect id="189"  class="cls-11" x="383.87" y="1224.35" width="32.25" height="23.17" />
    <rect id="190"  class="cls-7" x="586.84" y="1231.35" width="23.86" height="12.09" />
    <rect id="191"  class="cls-11" x="546.95" y="1272.22" width="34.92" height="91.3" />
    <rect id="192"  class="cls-11" x="478.95" y="1272.22" width="34.92" height="91.3" />
    <rect id="193"  class="cls-11" x="383.87" y="1272.22" width="34.92" height="91.3" />
    <rect id="194"  class="cls-11" x="313.12" y="1272.22" width="34.92" height="91.3" />
    <rect id="195"  class="cls-11" x="240.54" y="1272.22" width="34.92" height="91.3" />
    <rect id="196"  class="cls-11" x="431.62" y="1331.76" width="26.39" height="24" />
    <rect id="197"  class="cls-1" x="919.95" y="971.43" width="11" height="40.85" />
    <rect id="198"  class="cls-1" x="919.95" y="1012.28" width="11" height="40.85" />
    <rect id="199"  class="cls-1" x="919.95" y="1053.12" width="11" height="40.85" />
    <rect id="200"  class="cls-1" x="919.95" y="1093.97" width="11" height="40.85" />
    <rect id="201"  class="cls-1" x="919.95" y="1134.82" width="11" height="40.85" />
    <rect id="202"  class="cls-1" x="919.95" y="1175.67" width="11" height="40.85" />
    <rect id="203"  class="cls-7" x="919.95" y="1216.51" width="11" height="33" />
    <rect id="204"  class="cls-5" x="550.29" y="1395.93" width="267.33" height="31.08" />
    <rect id="205"  class="cls-1" x="423.62" y="1395.93" width="126.67" height="31.08" />
    <rect id="206"  class="cls-5" x="159.62" y="1395.93" width="264" height="31.08" />
    <rect id="207"  class="cls-9" x="127.62" y="1398.26" width="31.08" height="26.42" />
    <rect id="208"  class="cls-3" x="33.45" y="337.26" width="28.25" height="831.19" />
    <rect id="209"  class="cls-3" x="93.62" y="1369.51" width="27.08" height="52.75" rx="5.63" />
    <rect id="210"  class="cls-1" x="873.68" y="1240.22" width="18.03" height="194.21" transform="translate(786.92 -262.18) rotate(30)" />
    <polygon id="211"  class="cls-8" points="469.58 95.94 472.7 102.26 479.68 103.27 474.63 108.19 475.82 115.14 469.58 111.86 463.35 115.14 464.54 108.19 459.5 103.27 466.47 102.26 469.58 95.94" />
    <polygon id="212"  class="cls-8" points="465.33 437.17 468.45 443.49 475.42 444.5 470.38 449.42 471.57 456.36 465.33 453.08 459.09 456.36 460.29 449.42 455.24 444.5 462.21 443.49 465.33 437.17" />
    <polygon id="213"  class="cls-8" points="892.12 718.43 895.69 725.66 903.66 726.82 897.89 732.45 899.25 740.39 892.12 736.64 884.98 740.39 886.35 732.45 880.57 726.82 888.55 725.66 892.12 718.43" />
    <polygon id="214"  class="cls-8" points="893.66 825.53 897.23 832.76 905.21 833.92 899.44 839.55 900.8 847.49 893.66 843.74 886.53 847.49 887.89 839.55 882.12 833.92 890.1 832.76 893.66 825.53" />
    <polygon id="215"  class="cls-8" points="635.02 427.57 638.14 433.89 645.11 434.9 640.06 439.82 641.25 446.76 635.02 443.49 628.78 446.76 629.97 439.82 624.93 434.9 631.9 433.89 635.02 427.57" />
    <polygon id="216"  class="cls-8" points="468.1 1078.41 471.22 1084.72 478.19 1085.74 473.14 1090.65 474.33 1097.6 468.1 1094.32 461.86 1097.6 463.05 1090.65 458.01 1085.74 464.98 1084.72 468.1 1078.41" />
    <polygon id="217"  class="cls-8" points="451.58 1296.02 454.69 1302.33 461.67 1303.35 456.62 1308.27 457.81 1315.21 451.58 1311.93 445.34 1315.21 446.53 1308.27 441.49 1303.35 448.46 1302.33 451.58 1296.02" />
    <rect id="218"  class="cls-12" x="746.66" y="770.51" width="17.71" height="18.08" />
    <rect id="219"  class="cls-1" x="764.37" y="751.01" width="22.75" height="19.5" />
    <rect id="220"  class="cls-7" x="787.12" y="751.01" width="35.92" height="19.5" />
    <rect id="221"  class="cls-8" x="823.04" y="744.6" width="25.92" height="24.33" />
    <rect id="222"  class="cls-8" x="823.04" y="773.26" width="25.92" height="24.33" />
    <rect id="223"  class="cls-3" x="871.5" y="759.1" width="12.13" height="29.5" />
    <rect id="224"  class="cls-1" x="764.37" y="770.51" width="37.17" height="18.08" />
    <polygon id="225"  class="cls-2" points="729.46 770.51 729.46 788.6 732.46 788.6 732.46 790.51 734.37 790.51 734.37 788.6 739.73 788.6 739.73 790.51 741.64 790.51 741.64 788.6 743.96 788.6 743.96 770.51 729.46 770.51" />
    <circle id="226"  class="cls-8" cx="700.64" cy="767.16" r="11.4" />
    <circle id="227"  class="cls-8" cx="892.49" cy="1014.43" r="12.6" />
    <circle id="228"  class="cls-8" cx="891.49" cy="1148.67" r="12.6" />
    <circle id="229"  class="cls-8" cx="764.62" cy="1343.19" r="12.6" />
    <circle id="230"  class="cls-8" cx="340.95" cy="1233.7" r="12.6" />
    <circle id="231"  class="cls-8" cx="300.52" cy="1233.7" r="12.6" />
    <circle id="232"  class="cls-8" cx="262.85" cy="1233.7" r="12.6" />
    <text class="cls-13" transform="translate(279.17 116.66)">95</text>
    <text class="cls-13" transform="translate(87.97 392.48)">102</text>
    <text class="cls-13" transform="translate(132.46 385.28) rotate(90)">1<tspan class="cls-14" x="5.36" y="0">0<tspan x="12.69" y="0">1</text>
    <text class="cls-13" transform="translate(87.89 408.31)">103</text>
    <text class="cls-13" transform="translate(87.69 528.48)">105</text>
    <text class="cls-13" transform="translate(132.46 519.24) rotate(90)">104</text>
    <text class="cls-13" transform="translate(88.02 544.31)">106</text>
    <text class="cls-13" transform="translate(88.02 669.81)">108</text>
    <text class="cls-13" transform="translate(132.46 661.99) rotate(90)">1<tspan class="cls-15" x="5.36" y="0">0<tspan x="12.42" y="0">7</text>
    <text class="cls-13" transform="translate(88.02 685.64)">109</text>
    <text class="cls-13" transform="translate(90.56 800.06)">111</text>
    <text class="cls-13" transform="translate(132.46 792.88) rotate(90)">110</text>
    <text class="cls-13" transform="translate(89.23 815.89)">112</text>
    <text class="cls-13" transform="translate(88.79 924.81)">114</text>
    <text class="cls-13" transform="translate(132.46 917.49) rotate(90)">113</text>
    <text class="cls-13" transform="translate(88.95 940.64)">115</text>
    <text class="cls-13" transform="translate(89.51 1037.06)">117</text>
    <text class="cls-13" transform="translate(132.46 1029.86) rotate(90)">116</text>
    <text class="cls-13" transform="translate(89.28 1052.89)">118</text>
    <text class="cls-13" transform="translate(87.97 1144.72)">120</text>
    <text class="cls-13" transform="translate(132.46 1137.53) rotate(90)">119</text>
    <text class="cls-13" transform="translate(89.23 1160.56)">121</text>
    <text class="cls-13" transform="translate(246.4 253.16)">8</text>
    <text class="cls-13" transform="translate(286.69 229.41)">MERC. <tspan class="cls-16" x="49.38" y="0">DO<tspan class="cls-17" x="72.06" y="0">CE</text>
    <text class="cls-13" transform="translate(286.69 277.66)">MERC. <tspan class="cls-16" x="49.38" y="0">DO<tspan class="cls-17" x="72.06" y="0">CE</text>
    <text class="cls-13" transform="translate(533.13 229.41)">
        <tspan class="cls-18">P
        <tspan x="8.08" y="0">AES
    </text>
    <text class="cls-13" transform="translate(505.32 277.66)">MERC. <tspan class="cls-16" x="49.38" y="0">DO<tspan class="cls-17" x="72.06" y="0">CE</text>
    <text class="cls-13" transform="translate(308.98 358.28)">CAFES</text>
    <text class="cls-13" transform="translate(297.01 406.53)">BISCOI<tspan class="cls-19" x="50.67" y="0">T<tspan class="cls-20" x="59" y="0">O</text>
    <text class="cls-13" transform="translate(505.32 358.28)">MERC. <tspan class="cls-16" x="49.38" y="0">DO<tspan class="cls-17" x="72.06" y="0">CE</text>
    <text class="cls-13" transform="translate(515.64 406.53)">BISCOI<tspan class="cls-19" x="50.67" y="0">T<tspan class="cls-20" x="59" y="0">O</text>
    <text class="cls-13" transform="translate(297.01 486.95)">BISCOI<tspan class="cls-19" x="50.67" y="0">T<tspan class="cls-20" x="59" y="0">O</text>
    <text class="cls-13" transform="translate(286.69 535.2)">MERC. <tspan class="cls-16" x="49.38" y="0">DO<tspan class="cls-17" x="72.06" y="0">CE</text>
    <text class="cls-13" transform="translate(515.64 486.95)">BISCOI<tspan class="cls-19" x="50.67" y="0">T<tspan class="cls-20" x="59" y="0">O</text>
    <text class="cls-13" transform="translate(527.75 535.2)">
        <tspan class="cls-18">B
        <tspan x="9.45" y="0">AZAR
    </text>
    <text class="cls-13" transform="translate(286.69 614.85)">MERC. <tspan class="cls-16" x="49.38" y="0">DO<tspan class="cls-17" x="72.06" y="0">CE</text>
    <text class="cls-13" transform="translate(527.75 614.85)">
        <tspan class="cls-18">B
        <tspan x="9.45" y="0">AZAR
    </text>
    <text class="cls-13" transform="translate(300.78 663.81)">LIMPEZA</text>
    <text class="cls-13" transform="translate(519.41 663.81)">LIMPEZA</text>
    <text class="cls-13" transform="translate(319.26 742.68)">PET</text>
    <text class="cls-21" transform="translate(38.44 753.09)">C<tspan x="0.87" y="28.23">A<tspan x="5.56" y="56.46">I<tspan x="0.72" y="84.69">X<tspan x="0.87" y="112.92">A<tspan x="1.05" y="141.15">S</text>
    <text class="cls-13" transform="translate(519.41 742.68)">LIMPEZA</text>
    <text class="cls-13" transform="translate(300.78 791.64)">LIMPEZA</text>
    <text class="cls-13" transform="translate(519.41 791.64)">LIMPEZA</text>
    <text class="cls-13" transform="translate(300.78 870.18)">LIMPEZA</text>
    <text class="cls-13" transform="translate(519.41 870.18)">LIMPEZA</text>
    <text class="cls-13" transform="translate(286.79 919.14)">PERFUMARIA</text>
    <text class="cls-13" transform="translate(505.42 919.14)">PERFUMARIA</text>
    <text class="cls-13" transform="translate(712.77 870.18)">MERC. SA<tspan class="cls-22" x="68.34" y="0">L<tspan x="76.14" y="0">GA<tspan class="cls-16" x="96.31" y="0">D<tspan x="106.72" y="0">A</text>
    <text class="cls-13" transform="translate(724.92 919.14)">PERFUMARIA</text>
    <text class="cls-13" transform="translate(286.79 998.64)">PERFUMARIA</text>
    <text class="cls-13" transform="translate(505.42 998.64)">PERFUMARIA</text>
    <text class="cls-13" transform="translate(724.92 998.64)">PERFUMARIA</text>
    <text class="cls-13" transform="translate(302.09 1048.1)">CEREAIS</text>
    <text class="cls-13" transform="translate(520.72 1048.1)">CEREAIS</text>
    <text class="cls-13" transform="translate(740.58 1048.1)">MASSAS</text>
    <text class="cls-13" transform="translate(302.09 1130.1)">CEREAIS</text>
    <text class="cls-13" transform="translate(520.72 1130.1)">CEREAIS</text>
    <text class="cls-13" transform="translate(699.13 1130.1)">MASSAS / MOLHOS</text>
    <text class="cls-13" transform="translate(306.4 1179.56)">OLEOS</text>
    <text class="cls-13" transform="translate(239.08 1418.22)">S<tspan class="cls-23" x="9.38" y="0">A<tspan x="18.55" y="0">U<tspan class="cls-16" x="30.07" y="0">D<tspan class="cls-24" x="40.48" y="0">A<tspan class="cls-20" x="48.97" y="0">VEIS</text>
    <text class="cls-25" transform="translate(5.2 1416.33)">ENTRA<tspan class="cls-26" x="27.7" y="0">D<tspan x="33.69" y="0">A <tspan class="cls-26" x="41.51" y="0">D<tspan x="47.51" y="0">A <tspan class="cls-27" x="55.33" y="0">L<tspan x="59.82" y="0">O<tspan class="cls-28" x="67.06" y="0">J<tspan x="71.74" y="0">A</text>
    <text class="cls-13" transform="translate(648.08 1418.22)">LIQUI<tspan class="cls-16" x="41.12" y="0">D<tspan x="51.52" y="0">A</text>
    <text class="cls-13" transform="translate(511.16 1179.56)">TEMPEROS</text>
    <text class="cls-13" transform="translate(740.37 1179.56)">LIQUI<tspan class="cls-16" x="41.12" y="0">D<tspan x="51.52" y="0">A</text>
    <text class="cls-13" transform="translate(740.37 1248.6)">LIQUI<tspan class="cls-16" x="41.12" y="0">D<tspan x="51.52" y="0">A</text>
    <text class="cls-13" transform="translate(740.37 1286.87)">LIQUI<tspan class="cls-16" x="41.12" y="0">D<tspan x="51.52" y="0">A</text>
    <text class="cls-13" transform="translate(413.59 253.16)">9</text>
    <text class="cls-13" transform="translate(459.37 253.16)">24</text>
    <text class="cls-13" transform="translate(626.72 253.16)">25</text>
    <text class="cls-13" transform="translate(246.63 382.41)">7</text>
    <text class="cls-13" transform="translate(410.93 382.41)">10</text>
    <text class="cls-13" transform="translate(244.14 511.07)">6</text>
    <text class="cls-13" transform="translate(409.93 511.07)">11</text>
    <text class="cls-13" transform="translate(459.74 382.41)">23</text>
    <text class="cls-13" transform="translate(627.05 382.41)">26</text>
    <text class="cls-13" transform="translate(457.31 511.07)">22</text>
    <rect id="233"  class="cls-5" x="624.96" y="585.1" width="19.14" height="97.83" />
    <text class="cls-13" transform="translate(245.82 638.74)">5</text>
    <text class="cls-13" transform="translate(410.61 638.74)">12</text>
    <text class="cls-13" transform="translate(460.65 638.74)">21</text>
    <text class="cls-13" transform="translate(624.78 511.07)">27</text>
    <text class="cls-13" transform="translate(626.8 638.74)">28</text>
    <text class="cls-13" transform="translate(245.66 767.16)">4</text>
    <text class="cls-13" transform="translate(410.54 767.16)">13</text>
    <text class="cls-13" transform="translate(459.39 767.16)">20</text>
    <text class="cls-13" transform="translate(626.8 767.16)">29</text>
    <text class="cls-13" transform="translate(246.03 894.68)">3</text>
    <text class="cls-13" transform="translate(410.17 894.68)">14</text>
    <text class="cls-13" transform="translate(460.7 894.68)">19</text>
    <text class="cls-13" transform="translate(626.75 894.68)">30</text>
    <text class="cls-13" transform="translate(677.13 894.68)">36</text>
    <text class="cls-13" transform="translate(845.07 894.68)">
        <tspan class="cls-29">3
        <tspan x="7.62" y="0">7
    </text>
    <text class="cls-13" transform="translate(676.81 1021.76)">35</text>
    <text class="cls-13" transform="translate(844.56 1021.76)">38</text>
    <text class="cls-13" transform="translate(676.64 1154.14)">34</text>
    <text class="cls-13" transform="translate(844.56 1154.14)">39</text>
    <text class="cls-13" transform="translate(677.01 1269.23)">33</text>
    <text class="cls-30" transform="translate(685.95 1348.73)">47</text>
    <text class="cls-30" transform="translate(331.54 1238.39)">46</text>
    <text class="cls-30" transform="translate(292.12 1238.39)">
        <tspan class="cls-19">4
        <tspan x="8.22" y="0">5
    </text>
    <text class="cls-30" transform="translate(253.03 1238.39)">44</text>
    <text class="cls-13" transform="translate(134.83 1418.22)">41</text>
    <text class="cls-13" transform="translate(165.26 1248.6)">43</text>
    <text class="cls-13" transform="translate(131.67 1248.6)">42</text>
    <text class="cls-30" transform="translate(755.63 1348.73)">48</text>
    <text class="cls-30" transform="translate(814.75 1348.73)">49</text>
    <text class="cls-30" transform="translate(883.6 1216.14)">50</text>
    <text class="cls-30" transform="translate(884.86 1154.14)">51</text>
    <text class="cls-30" transform="translate(882.65 1086.64)">52</text>
    <text class="cls-30" transform="translate(884.12 1019.39)">53</text>
    <text class="cls-30" transform="translate(883.75 957.06)">54</text>
    <text class="cls-30" transform="translate(826.87 790.99)">55</text>
    <text class="cls-30" transform="translate(692.63 773.26)">57</text>
    <text class="cls-30" transform="translate(827.19 763.16)">56</text>
    <text class="cls-13" transform="translate(842.9 1268.67)">40</text>
    <text class="cls-13" transform="translate(246.1 1021.76)">2</text>
    <text class="cls-13" transform="translate(410.33 1021.76)">15</text>
    <text class="cls-13" transform="translate(460.7 1021.76)">18</text>
    <text class="cls-13" transform="translate(628.01 1021.76)">31</text>
    <text class="cls-13" transform="translate(247.43 1154.14)">1</text>
    <text class="cls-13" transform="translate(410.66 1154.14)">16</text>
    <text class="cls-13" transform="translate(460.93 1154.14)">17</text>
    <text class="cls-13" transform="translate(626.68 1154.14)">32</text>
    <text class="cls-31" transform="translate(485.56 325.1)">84</text>
    <text class="cls-31" transform="translate(606.22 312.35)">85</text>
    <text class="cls-30" transform="translate(480.5 453.14)">82</text>
    <text class="cls-30" transform="translate(606.43 440.39)">83</text>
    <text class="cls-31" transform="translate(265.78 453.14)">68</text>
    <text class="cls-31" transform="translate(386.28 440.39)">69</text>
    <text class="cls-31" transform="translate(486 580.81)">82</text>
    <text class="cls-31" transform="translate(606.43 568.06)">83</text>
    <text class="cls-31" transform="translate(265.78 580.81)">66</text>
    <text class="cls-31" transform="translate(386.79 568.06)">
        <tspan class="cls-14">6
        <tspan x="7.38" y="0">7
    </text>
    <text class="cls-31" transform="translate(486.62 709.64)">
        <tspan class="cls-19">7
        <tspan x="6.78" y="0">8
    </text>
    <text class="cls-31" transform="translate(606.78 696.89)">79</text>
    <text class="cls-31" transform="translate(265.29 709.64)">64</text>
    <text class="cls-31" transform="translate(385.96 696.89)">65</text>
    <text class="cls-31" transform="translate(486.96 837.22)">
        <tspan class="cls-32">7
        <tspan x="6.09" y="0">6
    </text>
    <text class="cls-13" transform="translate(701.5 837.22)">92</text>
    <text class="cls-31" transform="translate(607.01 825.97)">77</text>
    <text class="cls-31" transform="translate(265.73 837.22)">62</text>
    <text class="cls-31" transform="translate(386.16 824.47)">63</text>
    <text class="cls-31" transform="translate(486.4 965.31)">
        <tspan class="cls-33">7
        <tspan x="6.23" y="0">4
    </text>
    <text class="cls-31" transform="translate(606.45 954.06)">75</text>
    <text class="cls-31" transform="translate(700.64 965.31)">90</text>
    <text class="cls-31" transform="translate(824.57 955.56)">91</text>
    <text class="cls-31" transform="translate(698.45 1096.81)">88</text>
    <text class="cls-31" transform="translate(822.06 1082.31)">
        <tspan class="cls-14">8
        <tspan x="7.38" y="0">9
    </text>
    <text class="cls-31" transform="translate(698.45 1220.93)">86</text>
    <text class="cls-31" transform="translate(823.04 1214.93)">
        <tspan class="cls-14">8
        <tspan x="7.38" y="0">7
    </text>
    <text class="cls-31" transform="translate(265.8 965.31)">60</text>
    <text class="cls-31" transform="translate(387.56 952.56)">61</text>
    <text class="cls-30" transform="translate(483.23 1096.81)">72</text>
    <text class="cls-31" transform="translate(604.39 1082.31)">
        <tspan class="cls-22">7
        <tspan x="6.5" y="0">3
    </text>
    <text class="cls-31" transform="translate(265.46 1096.81)">58</text>
    <text class="cls-31" transform="translate(385.96 1080.81)">59</text>
    <text class="cls-31" transform="translate(268.94 325.1)">
        <tspan class="cls-16">7
        <tspan x="7.18" y="0">0
    </text>
    <text class="cls-31" transform="translate(390.73 312.35)">71</text>
    <text class="cls-13" transform="translate(279.38 171.91)">93</text>
    <text class="cls-13" transform="translate(350.78 116.66)">96</text>
    <text class="cls-13" transform="translate(350.7 171.91)">
        <tspan class="cls-15">9
        <tspan x="7.1" y="0">4
    </text>
    <text class="cls-13" transform="translate(507.12 118.35)">99</text>
    <text class="cls-13" transform="translate(507.35 173.6)">97</text>
    <text class="cls-13" transform="translate(580.98 118.35)">100</text>
    <text class="cls-13" transform="translate(582.17 173.6)">98</text>
</svg>